<?xml version="1.0" encoding="UTF-8" standalone="no"?>
<svg width="264px" height="600px" viewBox="0 0 264 600" version="1.1" xmlns="http://www.w3.org/2000/svg" xmlns:xlink="http://www.w3.org/1999/xlink" xmlns:sketch="http://www.bohemiancoding.com/sketch/ns">
    <!-- Generator: Sketch 3.3.2 (12043) - http://www.bohemiancoding.com/sketch -->
    <title>liquid-fire_color-icon</title>
    <desc>Created with Sketch.</desc>
    <defs></defs>
    <g id="Page-2" stroke="none" stroke-width="1" fill="none" fill-rule="evenodd" sketch:type="MSPage">
        <g id="liquid-fire_color-icon" sketch:type="MSArtboardGroup">
            <g id="fire-copy-+-Oval-4-Copy-9-Copy-Copy-Copy-Copy-Copy-Copy-Copy-Copy-Copy-Copy-Copy-Copy-Copy-Copy" sketch:type="MSLayerGroup">
                <path d="M88.3937385,160.542483 C107.409354,132.180921 118.49505,98.0990001 118.49505,61.4389716 C118.49505,39.8514821 114.651065,19.157956 107.607464,0 C157.347797,40.7329017 189.069307,102.48698 189.069307,171.618266 C189.069307,193.914874 185.210621,229.55158 181.049041,251.182419 C178.362005,265.14895 181.920328,273.427033 185.57565,276.083916 C189.230972,278.740798 197.142367,276.083916 203.202832,265.148954 C208.377806,255.811696 210.851485,244.414414 210.851485,232.780788 C210.851485,216.976832 205.768841,202.354905 197.142369,190.447227 C237.069735,213.048808 264,255.786794 264,304.787728 C264,377.376918 204.901587,436.222083 132,436.222083 C59.098413,436.222083 0,377.376918 0,304.787728 C0,274.698525 10.1543772,246.97084 27.237099,224.816883 C27.2413299,224.759493 27.2435208,224.730315 27.2435208,224.730315 C27.3547592,224.613346 27.4657413,224.496132 27.5764664,224.378675 C29.9126142,221.375164 32.3765598,218.475185 34.9601889,215.686816 C49.0234167,197.281028 57.3719594,174.311118 57.3719594,149.399658 C57.3719594,136.16334 55.0150296,123.475154 50.6962627,111.728499 C66.71645,124.847606 79.6881866,141.523106 88.3937385,160.542483 L88.3937385,160.542483 Z" id="fire-copy" fill="#812020" sketch:type="MSShapeGroup"></path>
                <path d="M146.055589,479.847236 C148.946075,483.20903 150.698601,487.616499 150.698601,492.442002 C150.698601,502.988686 142.326952,511.538462 132,511.538462 C121.673048,511.538462 113.301399,502.988686 113.301399,492.442002 C113.301399,487.616499 115.053925,483.20903 117.944411,479.847236 C121.183287,474.598855 123.057191,468.383727 123.057191,461.721612 C123.057191,449.889395 117.146267,439.467124 108.17561,433.366656 C114.576596,427.751928 122.90032,424.358974 132,424.358974 C141.09968,424.358974 149.423404,427.751928 155.82439,433.366656 L155.82439,433.366656 C146.853733,439.467124 140.942809,449.889395 140.942809,461.721612 C140.942809,468.383727 142.816713,474.598855 146.055585,479.847231 L146.055589,479.847236 Z" id="Oval-4-Copy-9" fill="#B07777" sketch:type="MSShapeGroup"></path>
                <path d="M107.959993,288.713167 C118.164006,273.494005 124.112726,255.205229 124.112726,235.533008 C124.112726,223.948896 122.049996,212.844497 118.270314,202.564103 C144.961586,224.421877 161.983737,257.559873 161.983737,294.656568 C161.983737,306.621201 159.913119,325.744294 157.679964,337.351668 C156.238068,344.84628 158.147508,349.288401 160.108998,350.714117 C162.070489,352.139832 166.31584,350.714117 169.56796,344.846282 C172.344914,339.835795 173.672321,333.719874 173.672321,327.477127 C173.672321,318.996531 170.944912,311.150225 166.315842,304.760419 C187.741355,316.888705 202.192466,339.822432 202.192466,366.116934 C202.192466,405.069183 170.479533,436.64622 131.359648,436.64622 C92.2397622,436.64622 60.5268293,405.069183 60.5268293,366.116934 C60.5268293,349.970699 65.9757926,335.091683 75.1425905,323.203598 C75.1448609,323.172802 75.1460365,323.157145 75.1460365,323.157145 C75.2057284,323.094378 75.2652828,323.031479 75.3246992,322.96845 C76.5783048,321.356729 77.9004882,319.800565 79.2868953,318.304292 C86.8333957,308.427521 91.3133261,296.101586 91.3133261,282.73379 C91.3133261,275.63102 90.0485686,268.822384 87.7310654,262.518985 C96.3276943,269.558858 103.288487,278.507136 107.959993,288.713167 L107.959993,288.713167 Z" id="fire-copy-2" fill="#B07777" sketch:type="MSShapeGroup"></path>
                <path d="M132,544.871795 C129.588647,544.871795 130.450756,551.022211 126.400848,560.02663 C124.68128,563.849856 121.866928,567.808782 119.29255,572.435898 C117.261075,576.087217 115.902439,580.804859 115.902439,584.676875 C115.902439,593.139603 123.109563,600 132,600 C140.890437,600 148.097561,593.139603 148.097561,584.676875 C148.097561,580.804859 146.738925,576.087217 144.70745,572.435898 C142.133072,567.808782 139.31872,563.849856 137.599152,560.02663 C133.549244,551.022211 134.411353,544.871795 132,544.871795 L132,544.871795 Z" id="Oval-4-Copy-7" fill="#B07777" sketch:type="MSShapeGroup"></path>
            </g>
        </g>
    </g>
</svg>